<svg width="36" height="36" viewBox="0 0 36 36" fill="none" xmlns="http://www.w3.org/2000/svg">
<g clip-path="url(#clip0_270_593)">
<path d="M14.6699 14.3C17.9836 14.3 20.6699 11.6138 20.6699 8.30005C20.6699 4.98634 17.9836 2.30005 14.6699 2.30005C11.3562 2.30005 8.66992 4.98634 8.66992 8.30005C8.66992 11.6138 11.3562 14.3 14.6699 14.3Z" fill="black"/>
<path d="M16.44 31.82C16.1095 31.4932 15.8939 31.068 15.8254 30.6083C15.7569 30.1486 15.8392 29.679 16.06 29.27L16.59 28.27L15.5 27.94C15.0555 27.8009 14.6685 27.5206 14.3978 27.1416C14.1271 26.7626 13.9874 26.3056 14 25.84V23.79C13.9992 23.3265 14.1475 22.875 14.423 22.5022C14.6985 22.1294 15.0866 21.8552 15.53 21.72L16.62 21.39L16.1 20.39C15.8857 19.9866 15.8041 19.5258 15.8669 19.0733C15.9298 18.6208 16.1338 18.1997 16.45 17.87C15.6807 17.7694 14.9059 17.7159 14.13 17.71C11.8383 17.6561 9.56297 18.1085 7.46624 19.035C5.36951 19.9615 3.50305 21.3392 2 23.07V30.82C2 31.0852 2.10536 31.3396 2.29289 31.5271C2.48043 31.7146 2.73478 31.82 3 31.82H16.44Z" fill="black"/>
<path d="M33.6998 23.46L31.6998 22.86C31.5614 22.3661 31.3668 21.8896 31.1198 21.44L32.1198 19.58C32.1584 19.511 32.1725 19.4309 32.1598 19.3528C32.1471 19.2747 32.1083 19.2032 32.0498 19.15L30.5998 17.69C30.5439 17.6357 30.4727 17.5998 30.3958 17.5873C30.3189 17.5748 30.24 17.5862 30.1698 17.62L28.3198 18.62C27.8645 18.3724 27.3854 18.1714 26.8898 18.02L26.2798 16.02C26.2529 15.9463 26.2039 15.8827 26.1394 15.8379C26.075 15.7931 25.9982 15.7694 25.9198 15.77H23.8398C23.7618 15.7722 23.6864 15.7983 23.6238 15.8448C23.5612 15.8914 23.5144 15.956 23.4898 16.03L22.8898 18.03C22.3851 18.1782 21.8986 18.3829 21.4398 18.64L19.6298 17.64C19.5594 17.6026 19.4791 17.5883 19.4001 17.5991C19.3211 17.6098 19.2476 17.6452 19.1898 17.7L17.7198 19.14C17.6619 19.1958 17.6237 19.2689 17.6111 19.3483C17.5985 19.4277 17.6121 19.509 17.6498 19.58L18.6498 21.4C18.3816 21.8516 18.1636 22.3311 17.9998 22.83L15.9998 23.44C15.9241 23.4619 15.8577 23.508 15.8108 23.5712C15.7638 23.6344 15.7389 23.7113 15.7398 23.79V25.84C15.7389 25.9188 15.7638 25.9957 15.8108 26.0589C15.8577 26.1221 15.9241 26.1682 15.9998 26.19L17.9998 26.8C18.1498 27.2898 18.3509 27.7624 18.5998 28.21L17.5998 30.11C17.5621 30.181 17.5485 30.2624 17.5611 30.3417C17.5737 30.4211 17.6119 30.4942 17.6698 30.55L19.1598 32C19.2176 32.0549 19.2911 32.0902 19.3701 32.101C19.4491 32.1118 19.5294 32.0974 19.5998 32.06L21.4698 31.06C21.9145 31.3 22.3839 31.4911 22.8698 31.63L23.4698 33.68C23.4949 33.7556 23.5432 33.8214 23.6078 33.8681C23.6724 33.9147 23.7501 33.9399 23.8298 33.94H25.8798C25.9577 33.9379 26.0332 33.9117 26.0958 33.8652C26.1584 33.8187 26.2052 33.7541 26.2298 33.68L26.8298 31.63C27.3096 31.492 27.7724 31.3009 28.2098 31.06L30.0998 32.06C30.1701 32.0974 30.2505 32.1118 30.3294 32.101C30.4084 32.0902 30.482 32.0549 30.5398 32L31.9998 30.55C32.0546 30.4922 32.09 30.4187 32.1007 30.3397C32.1115 30.2607 32.0972 30.1804 32.0598 30.11L31.0598 28.23C31.2984 27.7917 31.4895 27.329 31.6298 26.85L33.6298 26.24C33.7049 26.2159 33.7709 26.1695 33.8191 26.107C33.8674 26.0445 33.8955 25.9688 33.8998 25.89V23.82C33.9022 23.7475 33.8849 23.6757 33.8497 23.6123C33.8144 23.5489 33.7626 23.4963 33.6998 23.46ZM24.8698 28.18C24.2088 28.182 23.562 27.9878 23.0114 27.622C22.4609 27.2562 22.0312 26.7353 21.7769 26.1251C21.5226 25.515 21.455 24.8431 21.5827 24.1946C21.7105 23.546 22.0278 22.95 22.4945 22.4819C22.9612 22.0137 23.5563 21.6946 24.2045 21.565C24.8527 21.4353 25.5247 21.5008 26.1356 21.7533C26.7465 22.0058 27.2687 22.4339 27.6362 22.9834C28.0036 23.5329 28.1998 24.179 28.1998 24.84C28.1998 25.7241 27.8493 26.5722 27.225 27.1982C26.6008 27.8243 25.7539 28.1774 24.8698 28.18Z" fill="black"/>
</g>
<defs>
<clipPath id="clip0_270_593">
<rect width="36" height="36" fill="white"/>
</clipPath>
</defs>
</svg>
