<svg width="current" height="current" viewBox="0 0 48 48" fill="none" xmlns="http://www.w3.org/2000/svg">
<path d="M34 32C36.757 32 39 29.757 39 27V9C39 6.243 36.757 4 34 4H8C5.243 4 3 6.243 3 9V27C3 29.757 5.243 32 8 32H11V35.998C11 36.81 11.484 37.535 12.234 37.846C12.483 37.949 12.744 37.999 13.002 37.999C13.522 37.999 14.03 37.795 14.414 37.412L19.826 32H34ZM18.705 30.293L13 35.998V31C13 30.448 12.553 30 12 30H8C6.346 30 5 28.654 5 27V9C5 7.346 6.346 6 8 6H34C35.654 6 37 7.346 37 9V27C37 28.654 35.654 30 34 30H19.412C19.146 30 18.892 30.105 18.705 30.293Z" fill="current"/>
<path d="M26.999 15H24.181L24.669 12.068C24.797 11.302 24.582 10.524 24.08 9.932C23.579 9.34 22.846 9 22.07 9C21.065 9 20.132 9.5 19.574 10.336L16.465 15H14C12.897 15 12 15.897 12 17V24C12 25.103 12.897 26 14 26H26.17C27.644 26 28.889 24.945 29.13 23.491L29.959 18.491C30.104 17.62 29.859 16.734 29.288 16.06C28.717 15.386 27.883 15 26.999 15ZM14 17H16V24H14V17ZM27.157 23.164C27.076 23.648 26.661 24 26.17 24H18V16.303L21.238 11.446C21.424 11.167 21.735 11.001 22.07 11.001C22.326 11.001 22.483 11.142 22.554 11.226C22.624 11.309 22.738 11.488 22.696 11.74L22.013 15.837C21.964 16.127 22.046 16.423 22.237 16.648C22.426 16.872 22.706 17.002 23 17.002H26.999C27.298 17.002 27.569 17.127 27.763 17.356C27.955 17.584 28.035 17.872 27.987 18.166L27.158 23.166L27.157 23.164Z" fill="current"/>
</svg>
