<svg width="81" height="80" viewBox="0 0 81 80" fill="none" xmlns="http://www.w3.org/2000/svg">
<path d="M40.6465 80C62.7379 80 80.6465 62.0914 80.6465 40C80.6465 17.9086 62.7379 0 40.6465 0C18.5551 0 0.646484 17.9086 0.646484 40C0.646484 62.0914 18.5551 80 40.6465 80Z" fill="white"/>
<mask id="mask0_634_889" style="mask-type:luminance" maskUnits="userSpaceOnUse" x="14" y="13" width="54" height="55">
<path d="M66.5707 35.3084H41.262V45.8022H55.8299C54.4719 52.4689 48.7929 56.2961 41.262 56.2961C32.3732 56.2961 25.2127 49.1356 25.2127 40.2467C25.2127 31.3578 32.3732 24.1973 41.262 24.1973C45.0892 24.1973 48.546 25.5553 51.262 27.7776L59.1633 19.8763C54.3485 15.6788 48.1756 13.0862 41.262 13.0862C26.2003 13.0862 14.1016 25.1849 14.1016 40.2467C14.1016 55.3084 26.2003 67.4072 41.262 67.4072C54.8423 67.4072 67.188 57.5306 67.188 40.2467C67.188 38.6417 66.9411 36.9133 66.5707 35.3084Z" fill="white"/>
</mask>
<g mask="url(#mask0_634_889)">
<path d="M11.6328 56.2963V24.1975L32.6205 40.2469L11.6328 56.2963Z" fill="#FBBC05"/>
</g>
<mask id="mask1_634_889" style="mask-type:luminance" maskUnits="userSpaceOnUse" x="14" y="13" width="54" height="55">
<path d="M66.5707 35.3084H41.262V45.8022H55.8299C54.4719 52.4689 48.7929 56.2961 41.262 56.2961C32.3732 56.2961 25.2127 49.1356 25.2127 40.2467C25.2127 31.3578 32.3732 24.1973 41.262 24.1973C45.0892 24.1973 48.546 25.5553 51.262 27.7776L59.1633 19.8763C54.3485 15.6788 48.1756 13.0862 41.262 13.0862C26.2003 13.0862 14.1016 25.1849 14.1016 40.2467C14.1016 55.3084 26.2003 67.4072 41.262 67.4072C54.8423 67.4072 67.188 57.5306 67.188 40.2467C67.188 38.6417 66.9411 36.9133 66.5707 35.3084Z" fill="white"/>
</mask>
<g mask="url(#mask1_634_889)">
<path d="M11.6328 24.1974L32.6205 40.2468L41.2624 32.716L70.8921 27.9011V10.6172H11.6328V24.1974Z" fill="#EA4335"/>
</g>
<mask id="mask2_634_889" style="mask-type:luminance" maskUnits="userSpaceOnUse" x="14" y="13" width="54" height="55">
<path d="M66.5707 35.3084H41.262V45.8022H55.8299C54.4719 52.4689 48.7929 56.2961 41.262 56.2961C32.3732 56.2961 25.2127 49.1356 25.2127 40.2467C25.2127 31.3578 32.3732 24.1973 41.262 24.1973C45.0892 24.1973 48.546 25.5553 51.262 27.7776L59.1633 19.8763C54.3485 15.6788 48.1756 13.0862 41.262 13.0862C26.2003 13.0862 14.1016 25.1849 14.1016 40.2467C14.1016 55.3084 26.2003 67.4072 41.262 67.4072C54.8423 67.4072 67.188 57.5306 67.188 40.2467C67.188 38.6417 66.9411 36.9133 66.5707 35.3084Z" fill="white"/>
</mask>
<g mask="url(#mask2_634_889)">
<path d="M11.6328 56.2962L48.6698 27.9011L58.4229 29.1357L70.8921 10.6172V69.8765H11.6328V56.2962Z" fill="#34A853"/>
</g>
<mask id="mask3_634_889" style="mask-type:luminance" maskUnits="userSpaceOnUse" x="14" y="13" width="54" height="55">
<path d="M66.5707 35.3084H41.262V45.8022H55.8299C54.4719 52.4689 48.7929 56.2961 41.262 56.2961C32.3732 56.2961 25.2127 49.1356 25.2127 40.2467C25.2127 31.3578 32.3732 24.1973 41.262 24.1973C45.0892 24.1973 48.546 25.5553 51.262 27.7776L59.1633 19.8763C54.3485 15.6788 48.1756 13.0862 41.262 13.0862C26.2003 13.0862 14.1016 25.1849 14.1016 40.2467C14.1016 55.3084 26.2003 67.4072 41.262 67.4072C54.8423 67.4072 67.188 57.5306 67.188 40.2467C67.188 38.6417 66.9411 36.9133 66.5707 35.3084Z" fill="white"/>
</mask>
<g mask="url(#mask3_634_889)">
<path d="M70.8915 69.8765L32.6199 40.2469L27.6816 36.5432L70.8915 24.1975V69.8765Z" fill="#4285F4"/>
</g>
</svg>
