<svg width="80" height="80" viewBox="0 0 80 80" fill="none" xmlns="http://www.w3.org/2000/svg">
<path d="M0 40C0 17.9087 17.9087 0 40 0C62.0913 0 80 17.9087 80 40C80 62.0913 62.0913 80 40 80C17.9087 80 0 62.0913 0 40Z" fill="#FFE812"/>
<path d="M40.0007 18.3335C25.273 18.3335 13.334 27.7472 13.334 39.3592C13.334 46.8665 18.3253 53.454 25.8335 57.1738C25.425 58.5825 23.2087 66.2363 23.1203 66.8377C23.1203 66.8377 23.0673 67.2893 23.3598 67.4617C23.6525 67.634 23.9965 67.5002 23.9965 67.5002C24.8355 67.383 33.7255 61.1383 35.2643 60.054C36.8015 60.2717 38.3843 60.3848 40.0007 60.3848C54.7283 60.3848 66.6673 50.9715 66.6673 39.3592C66.6673 27.7472 54.7283 18.3335 40.0007 18.3335Z" fill="#381F1F"/>
<path fill-rule="evenodd" clip-rule="evenodd" d="M25.2573 46.6987C24.4088 46.6987 23.7188 46.0397 23.7188 45.2294V36.0897H21.3183C20.4858 36.0897 19.8086 35.4137 19.8086 34.5832C19.8086 33.7527 20.4859 33.0769 21.3183 33.0769H29.1963C30.0288 33.0769 30.7059 33.7527 30.7059 34.5832C30.7059 35.4137 30.0286 36.0897 29.1963 36.0897H26.7958V45.2294C26.7958 46.0397 26.1058 46.6987 25.2573 46.6987ZM38.7474 46.6787C38.1059 46.6787 37.6153 46.4182 37.4673 45.9992L36.7054 44.0049L32.0141 44.0046L31.2519 46.0002C31.1044 46.4184 30.6139 46.6787 29.9724 46.6787C29.6349 46.6791 29.3013 46.6066 28.9944 46.4664C28.5703 46.2707 28.1626 45.7327 28.6298 44.2817L32.3098 34.5956C32.5691 33.8589 33.3564 33.0999 34.3586 33.0771C35.3634 33.0997 36.1508 33.8589 36.4106 34.5971L40.0891 44.2789C40.5573 45.7332 40.1496 46.2716 39.7254 46.4666C39.4184 46.6066 39.0849 46.6789 38.7474 46.6787ZM34.3598 36.9144L35.8964 41.2797H32.8231L34.3598 36.9144ZM42.5649 46.4744C41.7518 46.4744 41.0906 45.8416 41.0906 45.0641V34.6154C41.0906 33.7669 41.7951 33.0769 42.6611 33.0769C43.5269 33.0769 44.2316 33.7669 44.2316 34.6154V43.6537H47.5008C48.3139 43.6537 48.9753 44.2866 48.9753 45.0641C48.9753 45.8416 48.3139 46.4744 47.5008 46.4744H42.5649ZM49.5736 45.1402C49.5736 45.9887 50.2636 46.6787 51.1121 46.6787C51.5201 46.6781 51.9113 46.5157 52.1998 46.2272C52.4883 45.9387 52.6506 45.5476 52.6511 45.1394V41.7827L53.1849 41.2489L56.7929 46.0294C56.9358 46.2202 57.1213 46.3749 57.3348 46.4812C57.5481 46.5874 57.7834 46.6421 58.0218 46.6411C58.3561 46.6417 58.6813 46.5327 58.9473 46.3304C59.1089 46.2092 59.2449 46.0572 59.3474 45.8831C59.4498 45.7089 59.5168 45.5161 59.5441 45.3159C59.5729 45.1157 59.5616 44.9121 59.5108 44.7164C59.4601 44.5207 59.3711 44.3371 59.2488 44.1761L55.4618 39.1592L58.9678 35.6537C59.2088 35.4126 59.3296 35.0799 59.3073 34.7171C59.2851 34.3574 59.1244 34.0111 58.8549 33.7417C58.5659 33.4531 58.1803 33.2874 57.7963 33.2874C57.4669 33.2874 57.1636 33.4089 56.9429 33.6297L52.6506 37.9221V34.6154C52.6506 33.7669 51.9606 33.0769 51.1121 33.0769C50.2636 33.0769 49.5736 33.7669 49.5736 34.6154V45.1402Z" fill="#FFE812"/>
</svg>
