<svg width="current" height="current" viewBox="0 0 19 27" fill="none" xmlns="http://www.w3.org/2000/svg">
<path d="M7.10306 19.9947C6.92528 19.6793 6.83639 19.3211 6.83639 18.9202C6.83639 18.5203 6.92528 18.1869 7.10306 17.92L8.897 15.2266H1.93942C1.66468 15.2266 1.43453 15.0868 1.249 14.8073C1.06282 14.5287 0.969727 14.1832 0.969727 13.7706C0.969727 13.3581 1.06282 13.0121 1.249 12.7326C1.43453 12.454 1.66468 12.3147 1.93942 12.3147H8.897L7.10306 9.62127C6.90912 9.33009 6.81215 8.98455 6.81215 8.58466C6.81215 8.18379 6.90912 7.83777 7.10306 7.54659C7.28084 7.2554 7.50322 7.10981 7.77021 7.10981C8.03655 7.10981 8.25862 7.24327 8.43639 7.51019L11.9273 12.7515C12.0243 12.8971 12.0931 13.0548 12.1338 13.2247C12.1739 13.3945 12.194 13.5765 12.194 13.7706C12.194 13.9648 12.1739 14.1468 12.1338 14.3166C12.0931 14.4865 12.0243 14.6442 11.9273 14.7898L8.43639 20.0311C8.24245 20.3223 8.01619 20.4558 7.75761 20.4315C7.49902 20.4072 7.28084 20.2616 7.10306 19.9947ZM10.6667 26.8739C10.3919 26.8739 10.1618 26.7342 9.97627 26.4546C9.79009 26.1761 9.697 25.8305 9.697 25.418C9.697 25.0055 9.79009 24.66 9.97627 24.3814C10.1618 24.1019 10.3919 23.9621 10.6667 23.9621H16.4849V3.5792H10.6667C10.3919 3.5792 10.1618 3.43943 9.97627 3.1599C9.79009 2.88133 9.697 2.53579 9.697 2.12328C9.697 1.71077 9.79009 1.36474 9.97627 1.08521C10.1618 0.806641 10.3919 0.667358 10.6667 0.667358H16.4849C17.0182 0.667358 17.4749 0.952233 17.8551 1.52198C18.2345 2.0927 18.4243 2.77844 18.4243 3.5792V23.9621C18.4243 24.7629 18.2345 25.4486 17.8551 26.0193C17.4749 26.5891 17.0182 26.8739 16.4849 26.8739H10.6667Z" fill="current"/>
</svg>
