<svg width="current" height="current" viewBox="0 0 19 29" fill="none" xmlns="http://www.w3.org/2000/svg">
<path d="M11.9502 20.9828C12.1379 20.6498 12.2317 20.2717 12.2317 19.8486C12.2317 19.4265 12.1379 19.0746 11.9502 18.7928L10.0566 15.9497H17.4007C17.6908 15.9497 17.9337 15.8022 18.1295 15.5071C18.3261 15.2131 18.4243 14.8483 18.4243 14.4129C18.4243 13.9775 18.3261 13.6122 18.1295 13.3172C17.9337 13.0231 17.6908 12.8761 17.4007 12.8761H10.0566L11.9502 10.033C12.155 9.72566 12.2573 9.36092 12.2573 8.93881C12.2573 8.51568 12.155 8.15043 11.9502 7.84307C11.7626 7.53571 11.5279 7.38203 11.246 7.38203C10.9649 7.38203 10.7305 7.5229 10.5428 7.80465L6.85799 13.3372C6.75563 13.4908 6.68296 13.6573 6.63997 13.8366C6.59766 14.0159 6.57651 14.208 6.57651 14.4129C6.57651 14.6178 6.59766 14.8099 6.63997 14.9892C6.68296 15.1685 6.75563 15.335 6.85799 15.4887L10.5428 21.0212C10.7475 21.3285 10.9864 21.4694 11.2593 21.4438C11.5323 21.4182 11.7626 21.2645 11.9502 20.9828ZM8.18863 28.2442C8.47864 28.2442 8.72156 28.0966 8.91741 27.8016C9.11393 27.5075 9.2122 27.1428 9.2122 26.7074C9.2122 26.2719 9.11393 25.9072 8.91741 25.6132C8.72156 25.3181 8.47864 25.1706 8.18863 25.1706H2.04721V3.65528H8.18863C8.47864 3.65528 8.72156 3.50774 8.91741 3.21268C9.11393 2.91863 9.2122 2.5539 9.2122 2.11847C9.2122 1.68304 9.11393 1.31779 8.91741 1.02273C8.72156 0.728686 8.47864 0.581665 8.18863 0.581665H2.04721C1.48425 0.581665 1.00215 0.882367 0.60091 1.48377C0.200354 2.0862 7.43866e-05 2.81003 7.43866e-05 3.65528V25.1706C7.43866e-05 26.0158 0.200354 26.7396 0.60091 27.3421C1.00215 27.9435 1.48425 28.2442 2.04721 28.2442H8.18863Z" fill="black"/>
</svg>
