<svg width="25" height="25" viewBox="0 0 25 25" fill="none" xmlns="http://www.w3.org/2000/svg">
<path d="M1.38889 25C0.99537 25 0.665741 24.8 0.4 24.4C0.133333 24.0014 0 23.5069 0 22.9167C0 22.3264 0.133333 21.8319 0.4 21.4333C0.665741 21.0333 0.99537 20.8333 1.38889 20.8333H23.6111C24.0046 20.8333 24.3343 21.0333 24.6 21.4333C24.8667 21.8319 25 22.3264 25 22.9167C25 23.5069 24.8667 24.0014 24.6 24.4C24.3343 24.8 24.0046 25 23.6111 25H1.38889ZM1.38889 14.5833C0.99537 14.5833 0.665741 14.3833 0.4 13.9833C0.133333 13.5847 0 13.0903 0 12.5C0 11.9097 0.133333 11.4146 0.4 11.0146C0.665741 10.616 0.99537 10.4167 1.38889 10.4167H23.6111C24.0046 10.4167 24.3343 10.616 24.6 11.0146C24.8667 11.4146 25 11.9097 25 12.5C25 13.0903 24.8667 13.5847 24.6 13.9833C24.3343 14.3833 24.0046 14.5833 23.6111 14.5833H1.38889ZM1.38889 4.16667C0.99537 4.16667 0.665741 3.96736 0.4 3.56875C0.133333 3.16875 0 2.67361 0 2.08333C0 1.49306 0.133333 0.997917 0.4 0.597917C0.665741 0.199306 0.99537 0 1.38889 0H23.6111C24.0046 0 24.3343 0.199306 24.6 0.597917C24.8667 0.997917 25 1.49306 25 2.08333C25 2.67361 24.8667 3.16875 24.6 3.56875C24.3343 3.96736 24.0046 4.16667 23.6111 4.16667H1.38889Z" fill="#FFC657"/>
</svg>
