<svg width="25" height="25" viewBox="0 0 25 25" fill="none" xmlns="http://www.w3.org/2000/svg">
<g clip-path="url(#clip0_543_1295)">
<path d="M19.7923 10.4167C20.6211 10.4167 21.416 10.7459 22.002 11.332C22.5881 11.918 22.9173 12.7129 22.9173 13.5417V16.6667C22.9173 17.4955 22.5881 18.2903 22.002 18.8764C21.416 19.4624 20.6211 19.7917 19.7923 19.7917V20.7979C19.7923 21.9021 18.5048 22.5052 17.6569 21.7979L15.2486 19.7917H12.5007C11.6719 19.7917 10.877 19.4624 10.2909 18.8764C9.70489 18.2903 9.37565 17.4955 9.37565 16.6667V13.5417C9.37565 12.7129 9.70489 11.918 10.2909 11.332C10.877 10.7459 11.6719 10.4167 12.5007 10.4167H19.7923ZM16.6673 4.16667C17.4961 4.16667 18.291 4.49591 18.877 5.08196C19.4631 5.66801 19.7923 6.46287 19.7923 7.29167V8.33334H11.459C10.3539 8.33334 9.29411 8.77233 8.51271 9.55373C7.7313 10.3351 7.29232 11.3949 7.29232 12.5V16.6667C7.29232 17.7542 7.70898 18.7458 8.39232 19.4875L7.29232 20.3125C6.43398 20.9563 5.20898 20.3438 5.20898 19.2708V17.7083C4.38018 17.7083 3.58533 17.3791 2.99928 16.793C2.41322 16.207 2.08398 15.4121 2.08398 14.5833V7.29167C2.08398 6.46287 2.41322 5.66801 2.99928 5.08196C3.58533 4.49591 4.38018 4.16667 5.20898 4.16667H16.6673Z" fill="current"/>
</g>
<defs>
<clipPath id="clip0_543_1295">
<rect width="25" height="25" fill="white"/>
</clipPath>
</defs>
</svg>
