<svg width="current" height="current" viewBox="0 0 20 19" fill="none" xmlns="http://www.w3.org/2000/svg">
<path d="M8.5 12H15C15.2833 12 15.5207 11.904 15.712 11.712C15.904 11.5207 16 11.2833 16 11C16 10.7167 15.904 10.479 15.712 10.287C15.5207 10.0957 15.2833 10 15 10H10.5L8.5 12ZM4.5 12H6.05C6.18333 12 6.30833 11.975 6.425 11.925C6.54167 11.875 6.65 11.8 6.75 11.7L12.35 6.15C12.45 6.05 12.5 5.925 12.5 5.775C12.5 5.625 12.45 5.5 12.35 5.4L10.6 3.65C10.5 3.55 10.375 3.5 10.225 3.5C10.075 3.5 9.95 3.55 9.85 3.65L4.3 9.25C4.2 9.35 4.125 9.45833 4.075 9.575C4.025 9.69167 4 9.81667 4 9.95V11.5C4 11.6333 4.05 11.75 4.15 11.85C4.25 11.95 4.36667 12 4.5 12ZM0 17.575V2C0 1.45 0.196 0.979 0.588 0.587C0.979333 0.195667 1.45 0 2 0H18C18.55 0 19.021 0.195667 19.413 0.587C19.8043 0.979 20 1.45 20 2V14C20 14.55 19.8043 15.021 19.413 15.413C19.021 15.8043 18.55 16 18 16H4L1.7 18.3C1.38333 18.6167 1.02067 18.6873 0.612 18.512C0.204 18.3373 0 18.025 0 17.575Z" fill="current"/>
</svg>
